# xmcd
#
# Track frame offsets: 
#        150
#        25677
#        46150
#        67577
#        78800
#        110982
#        138415
#        178865
#        218800
#        250827
#
# Disc length: 3750 seconds
#
# Revision: 0
# Processed by: cddbd v1.5.2PL0 Copyright (c) Steve Scherf et al.
# Submitted via: ExactAudioCopy v0.95b3
#
DISCID=800ea40a
DTITLE=Beck, Bogert and Appice  - Triangle Boogie  
DYEAR=1900
DGENRE=
TTITLE0=Superstition
TTITLE1=Livin' Alone
TTITLE2=Tonight I'll Be Staying Here With You
TTITLE3=People Get Ready
TTITLE4=Lady
TTITLE5=Morning Dew
TTITLE6=Plynth - Shotgun
TTITLE7=Let Me Love You
TTITLE8=Jeff's Boogie
TTITLE9=Why Should I Care
EXTD=
EXTT0=
EXTT1=
EXTT2=
EXTT3=
EXTT4=
EXTT5=
EXTT6=
EXTT7=
EXTT8=
EXTT9=
PLAYORDER=
